<?xml version="1.0" encoding="utf-8"?>
<svg xmlns="http://www.w3.org/2000/svg" xml:space="preserve" width="206.5" height="206.5" viewBox="0 -146.5 206.5 206.5">
  <g xmlns:cc="http://creativecommons.org/ns#" xmlns:dc="http://purl.org/dc/elements/1.1/" xmlns:inkscape="http://www.inkscape.org/namespaces/inkscape" xmlns:rdf="http://www.w3.org/1999/02/22-rdf-syntax-ns#" xmlns:sodipodi="http://sodipodi.sourceforge.net/DTD/sodipodi-0.dtd" xmlns:svg="http://www.w3.org/2000/svg" inkscape:output_extension="org.inkscape.output.svg.inkscape" inkscape:version="0.48.1" sodipodi:docname="VG history.svg" sodipodi:version=".32" fill="#58595B">
    <path d="M27.062-129.006v-.584c0-4.178 3.387-7.564 7.564-7.564H171.87c4.18 0 7.564 3.386 7.564 7.564v.584c0 4.174-3.385 7.564-7.564 7.564H34.627c-4.177 0-7.565-3.39-7.565-7.564zm139.62 14.157H39.816c-19.116 0-34.61 15.496-34.61 34.61 0 19.116 15.494 34.612 34.61 34.612 3.221 0 6.334-.45 9.291-1.273v97.555h11.842v-98.373c0-1.608-.4-3.097-1.074-4.322 2.529-1.804 4.809-3.938 6.77-6.342h73.209c1.961 2.403 4.24 4.538 6.77 6.342-.674 1.226-1.072 2.714-1.072 4.323v98.373h11.84V-46.9c2.957.824 6.072 1.273 9.291 1.273 19.115 0 34.611-15.496 34.611-34.612-.001-19.115-15.497-34.61-34.612-34.61zM45.77-62.374H33.863v-11.909h-11.91v-11.91h11.91v-11.91H45.77v11.91h11.91v11.91H45.77v11.909zm120.912-37.815c3.818 0 6.914 3.096 6.914 6.914 0 3.819-3.096 6.915-6.914 6.915-3.814 0-6.912-3.096-6.912-6.915 0-3.818 3.097-6.914 6.912-6.914zm-13.036 26.864c-3.82 0-6.916-3.096-6.916-6.913 0-3.816 3.096-6.914 6.916-6.914 3.816 0 6.912 3.097 6.912 6.914.001 3.818-3.095 6.913-6.912 6.913zm13.036 13.036c-3.814 0-6.912-3.094-6.912-6.913 0-3.819 3.098-6.914 6.912-6.914 3.818 0 6.914 3.095 6.914 6.914 0 3.819-3.096 6.913-6.914 6.913zm13.037-13.036c-3.816 0-6.914-3.096-6.914-6.913 0-3.816 3.098-6.914 6.914-6.914 3.818 0 6.914 3.097 6.914 6.914 0 3.818-3.096 6.913-6.914 6.913z"/>
    <path d="M76.148-55.25c-4.926 0-8.918 3.993-8.918 8.916v96.989h17.834v-96.989c0-4.924-3.994-8.916-8.916-8.916zm27.102.007c-6.576 0-11.902 5.328-11.902 11.904v93.993h23.803v-93.993c-.001-6.576-5.329-11.904-11.901-11.904zm27.1-.007c-4.924 0-8.916 3.993-8.916 8.916v96.989h17.834v-96.989c0-4.924-3.995-8.916-8.918-8.916z"/>
  </g>
</svg>